<svg viewBox="0 0 184 184" version="1.1" xmlns="http://www.w3.org/2000/svg" xmlns:xlink="http://www.w3.org/1999/xlink">
    <title>adrian-spinner</title>
    <g id="Page-1" stroke="none" stroke-width="1" fill="currentColor" fill-rule="evenodd">
        <g id="adrian-spinner" fill="currentColor">
            <path d="M92,0 C142.810197,0 184,41.189803 184,92 C184,142.810197 142.810197,184 92,184 C41.189803,184 0,142.810197 0,92 C0,41.189803 41.189803,0 92,0 Z M91.5,29 C56.9822031,29 29,56.9822031 29,91.5 C29,126.017797 56.9822031,154 91.5,154 C126.017797,154 154,126.017797 154,91.5 C154,56.9822031 126.017797,29 91.5,29 Z" id="Combined-Shape" fill-opacity="0.25"></path>
            <path d="M92,2.84217094e-14 C142.810197,2.84217094e-14 184,41.189803 184,92 C184,112.297546 177.426828,131.059845 166.293022,146.274359 L141.90644,128.45896 C149.509191,118.107437 154,105.328161 154,91.5 C154,57.0804435 126.176849,29.1593321 91.7945619,29.0006795 L91.7002649,0.000477911916 C91.8001392,0.000159384071 91.900051,2.84217094e-14 92,2.84217094e-14 Z" id="Combined-Shape"></path>
        </g>
    </g>
</svg>
